<?xml version="1.0" encoding="UTF-8"?>
<svg version="1.1" xmlns="http://www.w3.org/2000/svg" width="400" height="400">
<path d="M0 0 C7.59984199 6.37450515 11.60139591 15.12491735 13.125 24.8125 C14.46615957 40.96229647 10.14518024 56.04640498 0.125 68.8125 C-7.23384852 76.77279286 -17.32243946 80.26479523 -27.9453125 81.03515625 C-38.99006882 81.3354274 -49.53516149 79.57012337 -57.875 71.8125 C-67.61484889 59.59031609 -69.93782679 46.14757227 -68.875 30.8125 C-66.26709203 16.95602514 -59.33010095 5.10029193 -47.875 -3.1875 C-44.9573628 -4.90866077 -42.09444265 -6.14675655 -38.875 -7.1875 C-38.18019531 -7.42210937 -37.48539063 -7.65671875 -36.76953125 -7.8984375 C-23.78707801 -11.5401457 -10.73715843 -7.59501341 0 0 Z M-36.3125 28.5 C-38.26252893 32.63406133 -39.23597183 36.22651703 -38.875 40.8125 C-36.91664766 44.65926353 -35.46050738 46.42216175 -31.875 48.8125 C-28.17293356 49.29537823 -26.40669361 49.13398916 -23.1875 47.1875 C-19.11231101 43.00217077 -17.34760128 38.60186574 -16.875 32.8125 C-17.18098225 28.37575743 -17.44464951 24.87531293 -20.875 21.8125 C-26.78807997 20.46093886 -32.50810235 24.30540772 -36.3125 28.5 Z " fill="#FFFFFF" transform="translate(274.875,165.1875)"/>
<path d="M0 0 C2.70826631 2.67540565 4.7599542 5.72157198 6.875 8.875 C7.46796875 9.71675781 8.0609375 10.55851563 8.671875 11.42578125 C13 17.65868016 13 17.65868016 13 20 C15.64265519 17.43284924 18.02803333 14.9643901 20.3125 12.0625 C24.2406017 7.3093738 28.71903371 3.85536236 34.5 1.6875 C39.86253375 2.16629766 42.34225881 5.28880539 46 9 C47.010625 9.825 48.02125 10.65 49.0625 11.5 C51 14 51 14 50.98046875 17.19140625 C49.73436308 22.03185657 47.48630733 24.72730481 44.25 28.4375 C40.02009687 33.39830551 36.3124673 38.37528249 33 44 C33.59014893 44.58491211 34.18029785 45.16982422 34.78833008 45.77246094 C36.98763227 47.95466731 39.18463376 50.1391573 41.38012695 52.32519531 C42.79398353 53.73158136 44.21045185 55.13534021 45.62695312 56.5390625 C46.51962891 57.42851562 47.41230469 58.31796875 48.33203125 59.234375 C49.15421143 60.05131836 49.9763916 60.86826172 50.82348633 61.70996094 C55.84370517 66.99203079 55.84370517 66.99203079 56.4609375 70.97265625 C55.37167113 78.12673623 46.25834937 82.92315175 40.75 87 C37.21175731 89.56463228 34.42674601 90.90825397 30 91 C25.43958725 88.32929957 22.78659721 84.22476011 19.875 79.9375 C16.33236104 74.64103689 16.33236104 74.64103689 12 70 C11.5875 70.53367187 11.175 71.06734375 10.75 71.6171875 C9.52694548 73.19514623 8.29864691 74.76904807 7.06640625 76.33984375 C5.67748099 78.12785529 4.31045272 79.93307261 2.96484375 81.75390625 C1.96130859 83.08228516 1.96130859 83.08228516 0.9375 84.4375 C0.32777344 85.26121094 -0.28195313 86.08492188 -0.91015625 86.93359375 C-3.51158388 89.50584649 -5.41248715 90.32849118 -9 91 C-17.49257872 88.15060779 -25.75318211 80.24681789 -32 74 C-31.9333382 68.22542186 -29.20147254 65.33814789 -25.5 61.3125 C-24.41366853 60.07977415 -23.32773567 58.84669693 -22.2421875 57.61328125 C-20.6764722 55.86125976 -19.10524085 54.1152092 -17.52050781 52.38037109 C-16.20537618 50.93520709 -14.91440972 49.46815966 -13.625 48 C-12.87476563 47.175 -12.12453125 46.35 -11.3515625 45.5 C-9.6989861 43.05196392 -9.6989861 43.05196392 -10.45703125 40.203125 C-12.3908343 36.18864778 -14.64295849 32.48711363 -17.0625 28.75 C-17.97066861 27.3285187 -18.87824895 25.90666134 -19.78515625 24.484375 C-20.18613525 23.86272461 -20.58711426 23.24107422 -21.00024414 22.60058594 C-23.11056051 19.22201839 -23.47142023 17.00707195 -23 13 C-19.73137614 9.3101923 -16.12250323 6.4620968 -12.0625 3.6875 C-11.06347656 2.99011719 -10.06445312 2.29273438 -9.03515625 1.57421875 C-5.438787 -0.29107959 -3.95831407 -1.01872103 0 0 Z " fill="#FFFFFF" transform="translate(145,154)"/>
</svg>
