<?xml version="1.0" encoding="UTF-8"?>
<svg version="1.1" xmlns="http://www.w3.org/2000/svg" width="3000" height="2000">
<path d="M0 0 C2.4327617 0.00537087 4.86533948 0.00001505 7.2980957 -0.00634766 C38.85845777 -0.02601568 54.9105049 13.10778547 76.74145508 34.86865234 C78.625969 36.87073227 80.27804258 38.89293285 81.87036133 41.13037109 C81.02669648 31.43452135 79.51398283 23.01565168 75.89379883 13.92333984 C74.87036133 11.13037109 74.87036133 11.13037109 74.87036133 8.13037109 C80.46149969 8.69154894 85.46403744 9.73417039 90.78833008 11.50146484 C91.88516869 11.85799385 91.88516869 11.85799385 93.00416565 12.22172546 C95.35911592 12.99302979 97.70897288 13.77831017 100.05786133 14.56787109 C100.86171265 14.83670105 101.66556396 15.10553101 102.49377441 15.38250732 C126.85834593 23.57302911 149.07285834 34.57556256 168.87036133 51.13037109 C169.54067383 51.65373047 170.21098633 52.17708984 170.90161133 52.71630859 C175.36832134 56.85458404 175.73504736 62.01074085 176.55957031 67.75805664 C178.92111694 83.20345168 185.13367711 98.23549125 191.51953125 112.41894531 C192.35592812 114.30016091 193.12087172 116.21287346 193.87036133 118.13037109 C193.54036133 118.79037109 193.21036133 119.45037109 192.87036133 120.13037109 C192.05954102 119.36853516 191.2487207 118.60669922 190.41333008 117.82177734 C173.22290288 101.75121359 154.59378819 87.80113742 134.67456055 75.28076172 C133.09735764 74.27510812 131.54586837 73.22935548 129.99926758 72.17724609 C121.83554741 66.66021146 112.91073527 62.95935236 103.87036133 59.13037109 C103.84458008 59.77361328 103.81879883 60.41685547 103.79223633 61.07958984 C103.13878688 71.49022771 100.59618123 81.33714768 94.87036133 90.13037109 C90.54639755 88.62427135 86.98721341 86.33426257 83.24536133 83.75537109 C68.00622062 73.45972817 52.51057568 63.76341877 36.1574707 55.31347656 C34.24430799 54.32381105 32.35824733 53.28198455 30.47973633 52.22802734 C7.14553945 45.13180513 -30.29241754 64.04082351 -50.40649414 74.73583984 C-57.06711327 78.39052639 -63.20727721 82.35822033 -69.12963867 87.13037109 C-70.61463867 88.12037109 -70.61463867 88.12037109 -72.12963867 89.13037109 C-70.58201848 93.21385088 -67.90415885 95.12886843 -64.50463867 97.75537109 C-62.67757952 99.16911095 -60.87578118 100.61782625 -59.12963867 102.13037109 C-59.12963867 102.79037109 -59.12963867 103.45037109 -59.12963867 104.13037109 C-59.94045898 104.42169922 -60.7512793 104.71302734 -61.58666992 105.01318359 C-79.67494253 111.70942421 -94.22256482 121.87827151 -107.12963867 136.13037109 C-107.12963867 136.46037109 -107.12963867 136.79037109 -107.12963867 137.13037109 C-98.87963867 138.45037109 -90.62963867 139.77037109 -82.12963867 141.13037109 C-81.54182617 144.22412109 -81.54182617 144.22412109 -80.94213867 147.38037109 C-78.23538874 159.75408508 -74.23510881 168.25065641 -65.12963867 177.13037109 C-64.46319336 177.82904297 -63.79674805 178.52771484 -63.11010742 179.24755859 C-50.54748063 191.59400252 -32.61864646 196.95783022 -15.39916992 197.73583984 C-14.55000504 197.7761734 -13.70084015 197.81650696 -12.82594299 197.85806274 C0.82984787 198.42153997 14.52013937 198.12799738 28.18261719 197.95898438 C45.57248567 197.75652531 62.10946568 198.09129068 78.87036133 203.13037109 C71.96091151 195.31476392 64.71971944 187.84437543 57.37036133 180.44287109 C56.50515869 179.56477783 55.63995605 178.68668457 54.74853516 177.78198242 C48.77619759 171.80066137 42.52745339 166.33808621 35.87036133 161.13037109 C35.19070313 160.57591309 34.51104492 160.02145508 33.81079102 159.45019531 C25.40483222 153.73270497 11.55784931 155.75205739 1.75805664 155.67407227 C-20.4125753 155.46435007 -38.26856233 149.58070095 -57.12963867 138.13037109 C-56.82331428 135.10797043 -56.16155937 134.16011157 -53.89916992 132.05224609 C-40.01052727 121.85134079 -22.20392932 109.87260017 -4.12963867 110.13037109 C-0.97902153 110.70757513 1.93394158 111.70540774 4.93286133 112.81787109 C5.77977539 113.12241211 6.62668945 113.42695312 7.49926758 113.74072266 C18.84024413 118.00595185 31.3897447 123.38972526 41.04833984 130.80175781 C42.74694537 132.3283517 42.74694537 132.3283517 44.74145508 132.06005859 C47.6978246 130.76902016 50.24560409 129.03816873 52.93286133 127.25537109 C59.86884029 122.8094076 66.57317016 120.13037109 74.87036133 120.13037109 C73.45358674 123.1410171 71.78004174 125.78407651 69.87036133 128.50537109 C67.52781371 132.03061959 65.69525504 134.92341319 64.87036133 139.13037109 C64.68344727 139.99275391 64.4965332 140.85513672 64.30395508 141.74365234 C63.87430295 145.23061856 63.96653263 147.72524903 64.87036133 151.13037109 C67.38089942 154.30308148 70.30890588 156.75447312 73.40942383 159.31787109 C78.80700237 163.80021908 83.70098959 168.79259266 88.63989258 173.76550293 C90.21452756 175.3493568 91.79563343 176.92649078 93.37817383 178.50244141 C105.71763923 190.82709056 105.71763923 190.82709056 108.87036133 195.13037109 C108.87036133 195.79037109 108.87036133 196.45037109 108.87036133 197.13037109 C109.75594727 196.80423828 110.6415332 196.47810547 111.55395508 196.14208984 C137.93674596 186.83536132 166.29399609 185.83833434 192.87036133 195.13037109 C179.24063847 181.14071907 179.24063847 181.14071907 164.09448242 168.85644531 C153.67515681 161.33036861 147.04514347 153.71698836 140.57348633 142.62255859 C137.68154625 137.67472712 134.29803544 133.46963243 130.51489258 129.16162109 C128.87036133 127.13037109 128.87036133 127.13037109 127.87036133 124.13037109 C136.98162729 126.75565112 146.3412105 130.68668836 153.43286133 137.13037109 C155.59197412 139.37785419 155.59197412 139.37785419 157.76489258 138.96240234 C160.30410968 137.95896405 161.92827964 136.59891749 163.99536133 134.81787109 C168.44892968 131.25501641 173.1919369 128.21898096 178.87036133 127.13037109 C184.30795945 129.02905709 187.41978309 134.04672743 190.12036133 138.88037109 C192.23638964 143.44469662 193.53494881 148.08287124 192.87036133 153.13037109 C191.1535992 155.91251937 189.55988896 157.12640933 186.87036133 159.13037109 C186.21036133 159.13037109 185.55036133 159.13037109 184.87036133 159.13037109 C187.16293933 163.4250292 190.14186206 166.6025403 193.62036133 169.94287109 C198.2711688 174.49240588 202.66440753 179.16217324 206.87036133 184.13037109 C207.20036133 184.46037109 207.53036133 184.79037109 207.87036133 185.13037109 C209.35536133 176.71537109 209.35536133 176.71537109 210.87036133 168.13037109 C214.57299587 169.36458261 215.04781458 170.50004391 217.12817383 173.73193359 C217.74909912 174.6890625 218.37002441 175.64619141 219.00976562 176.63232422 C219.66501221 177.66292969 220.32025879 178.69353516 220.99536133 179.75537109 C221.67187744 180.80917969 222.34839355 181.86298828 223.04541016 182.94873047 C224.99830869 186.00231113 226.93713463 189.06430821 228.87036133 192.13037109 C229.32813965 192.85192383 229.78591797 193.57347656 230.25756836 194.31689453 C253.90833161 231.78597122 269.70074754 272.67859153 277.87036133 316.13037109 C278.14372314 317.56630615 278.14372314 317.56630615 278.42260742 319.03125 C283.57283678 347.49843812 283.03493303 379.71887164 277.87036133 408.13037109 C277.75629944 408.76527466 277.64223755 409.40017822 277.52471924 410.05432129 C269.80233801 452.83832243 269.80233801 452.83832243 261.87036133 468.13037109 C258.08347134 465.37626928 255.19709421 462.299394 252.18286133 458.76708984 C249.00972279 455.1490687 245.72199862 451.64282198 242.43286133 448.13037109 C241.47295288 447.10496216 241.47295288 447.10496216 240.49365234 446.05883789 C238.95353671 444.41509064 237.41248986 442.77222971 235.87036133 441.13037109 C235.72002441 442.0148291 235.5696875 442.89928711 235.41479492 443.81054688 C229.78047068 476.6497564 222.06364766 507.64950962 205.87036133 537.13037109 C205.49975586 537.80970703 205.12915039 538.48904297 204.74731445 539.18896484 C198.66970553 550.21158336 191.65488555 560.25341093 183.87036133 570.13037109 C182.7643457 571.55736328 182.7643457 571.55736328 181.63598633 573.01318359 C165.81489046 592.93824794 147.08495213 610.32562464 126.05395508 624.62255859 C124.62323511 625.61049761 123.21757921 626.63599423 121.84301758 627.70068359 C119.99536133 629.13037109 119.99536133 629.13037109 116.87036133 631.13037109 C114.67504883 630.75537109 114.67504883 630.75537109 112.87036133 630.13037109 C112.57585083 628.94447388 112.57585083 628.94447388 112.27539062 627.73461914 C111.53273123 624.74674086 110.7889416 621.75914666 110.04443359 618.77172852 C109.56954665 616.86479412 109.09591468 614.95754734 108.62231445 613.05029297 C106.79398522 605.71773048 104.89885856 598.41020285 102.87036133 591.13037109 C98.37784844 593.59575836 93.90703116 596.08739064 89.50317383 598.70849609 C29.58447363 634.32778962 -40.87846601 647.32254667 -108.8371582 630.45849609 C-125.38405446 626.14545778 -141.32050994 619.6827487 -156.12963867 611.13037109 C-155.44071282 602.1091664 -153.81656074 593.29845792 -152.23294067 584.4019165 C-145.45285452 546.00031833 -140.55716121 505.84207491 -148.12963867 467.13037109 C-148.32251465 466.11974609 -148.51539063 465.10912109 -148.71411133 464.06787109 C-150.85137198 453.01781448 -153.19774264 441.9998393 -156.12963867 431.13037109 C-159.71015088 435.48925553 -162.97555537 440.0446688 -166.25463867 444.63037109 C-179.57977447 463.14711824 -193.71176004 480.81962199 -209.44799805 497.34716797 C-211.65255972 499.6848739 -213.809956 502.063641 -215.96948242 504.44287109 C-220.15138447 509.03977105 -224.36718613 513.4651934 -229.14135742 517.45849609 C-231.51154438 519.45150202 -233.78310633 521.53930615 -236.06713867 523.63037109 C-248.82957435 535.13037109 -248.82957435 535.13037109 -252.12963867 535.13037109 C-284.47117525 479.17437923 -287.46185764 397.35022899 -274.12963867 335.13037109 C-275.02457031 335.40187988 -275.91950195 335.67338867 -276.84155273 335.953125 C-284.80351781 338.36828848 -292.76609181 340.78142642 -300.72950745 343.19180298 C-305.05529749 344.50136711 -309.37998117 345.81449815 -313.70385742 347.13037109 C-315.49157759 347.67217057 -317.27933425 348.2138497 -319.06713867 348.75537109 C-319.87505859 349.0023877 -320.68297852 349.2494043 -321.51538086 349.50390625 C-326.90192694 351.13037109 -326.90192694 351.13037109 -329.12963867 351.13037109 C-331.8649744 317.15142288 -315.35815072 279.21781373 -301.12963867 249.13037109 C-300.75758301 248.33711426 -300.38552734 247.54385742 -300.00219727 246.7265625 C-291.99807012 229.78899008 -282.39681648 214.09895649 -271.12963867 199.13037109 C-269.62655854 197.07011471 -268.12652493 195.00763204 -266.62963867 192.94287109 C-265.46297201 191.33870443 -264.29630534 189.73453776 -263.12963867 188.13037109 C-263.7406543 188.10458984 -264.35166992 188.07880859 -264.98120117 188.05224609 C-275.84547456 187.37896718 -286.45662103 185.18035406 -297.12963867 183.13037109 C-285.42941528 158.49107713 -270.70555556 136.13909625 -252.56665039 115.75610352 C-251.56378785 114.62153647 -250.57139173 113.47766927 -249.5871582 112.3269043 C-244.60591254 106.52519239 -239.2831811 101.10031218 -233.87963867 95.69287109 C-233.00178711 94.80277344 -232.12393555 93.91267578 -231.21948242 92.99560547 C-225.17160435 86.93444509 -218.83236259 81.45205405 -212.12963867 76.13037109 C-211.04875605 75.24309484 -209.97000114 74.35320599 -208.89526367 73.45849609 C-204.08971522 69.4886952 -199.26331958 65.66690683 -194.12963867 62.13037109 C-193.46963867 62.46037109 -192.80963867 62.79037109 -192.12963867 63.13037109 C-192.46737305 63.95279297 -192.80510742 64.77521484 -193.15307617 65.62255859 C-199.92213014 82.56475726 -202.19549729 100.71479874 -195.31518555 118.20019531 C-189.47106071 131.62865414 -182.45251441 140.95226007 -170.12963867 149.13037109 C-170.35627197 148.58324463 -170.58290527 148.03611816 -170.81640625 147.47241211 C-177.08981891 132.15748143 -182.49796464 116.95571265 -181.12963867 100.13037109 C-181.0600293 99.19193359 -180.99041992 98.25349609 -180.91870117 97.28662109 C-179.54484355 85.6851567 -173.96856809 74.05314204 -165.05932617 66.33740234 C-154.59875555 59.23773749 -143.61291797 57.84064511 -131.19995117 59.52880859 C-122.1501369 61.41725222 -114.21600481 65.81011711 -106.12963867 70.13037109 C-111.7706158 56.80746029 -122.18534864 45.4858261 -135.71166992 39.90771484 C-140.09211419 38.49946216 -144.58239395 37.77633483 -149.12963867 37.13037109 C-149.12963867 36.47037109 -149.12963867 35.81037109 -149.12963867 35.13037109 C-111.26880381 16.47946318 -71.14244416 5.14678559 -29.12963867 1.13037109 C-27.65708618 0.98462646 -27.65708618 0.98462646 -26.15478516 0.8359375 C-17.43224306 0.06050893 -8.74937121 -0.02294338 0 0 Z M95.99536133 227.19287109 C95.24996094 227.41765137 94.50456055 227.64243164 93.73657227 227.87402344 C85.81678576 230.34498344 78.32940218 233.5143182 70.87036133 237.13037109 C69.67950928 237.70634033 69.67950928 237.70634033 68.46459961 238.29394531 C50.04139938 247.32227426 33.01710604 258.49378827 16.87036133 271.13037109 C18.15574208 275.28617974 19.72090057 278.99527207 21.78442383 282.82177734 C22.37328369 283.918125 22.96214355 285.01447266 23.56884766 286.14404297 C24.21084197 287.3270817 24.8530177 288.51002199 25.49536133 289.69287109 C26.15797904 290.92124424 26.82032786 292.14976247 27.48242188 293.37841797 C33.17324739 303.91939913 38.95497082 314.41101718 44.76538086 324.88647461 C45.40459473 326.03946045 46.04380859 327.19244629 46.70239258 328.38037109 C47.26676025 329.39615234 47.83112793 330.41193359 48.41259766 331.45849609 C49.61499747 333.6623252 50.76800827 335.87532922 51.87036133 338.13037109 C83.70507566 340.55844253 114.34971506 317.01865707 137.87036133 298.13037109 C138.85133789 297.35306641 139.83231445 296.57576172 140.84301758 295.77490234 C144.98580588 292.60134566 144.98580588 292.60134566 148.87036133 289.13037109 C148.96305132 287.77942127 148.98783459 286.42370019 148.98388672 285.06958008 C148.98381119 284.20876328 148.98373566 283.34794647 148.98365784 282.46104431 C148.97591591 281.05792747 148.97591591 281.05792747 148.96801758 279.62646484 C148.96660263 278.67344986 148.96518768 277.72043488 148.96372986 276.73854065 C148.95811285 273.68161944 148.94555749 270.62477033 148.93286133 267.56787109 C148.92784852 265.50081486 148.92328523 263.43375748 148.91918945 261.36669922 C148.90813789 256.28789522 148.89086188 251.20914539 148.87036133 246.13037109 C147.81469971 245.67871582 146.75903809 245.22706055 145.67138672 244.76171875 C138.3842048 241.62322579 131.17367251 238.50487276 124.30786133 234.50537109 C123.67557617 234.14958984 123.04329102 233.79380859 122.3918457 233.42724609 C119.16669999 231.58430569 116.21200276 229.64010183 113.28051758 227.35693359 C107.65414785 223.2982976 102.21735423 225.30676674 95.99536133 227.19287109 Z M196.61849976 232.84289551 C193.44393853 235.37378878 190.42124924 237.4510519 186.70727539 239.11132812 C178.90791708 242.67901739 178.90791708 242.67901739 173.95928955 249.34295654 C172.76424727 254.77297116 172.85063456 260.17793115 173.11401367 265.70703125 C173.24535515 268.63023368 173.23728924 271.52900766 173.21020508 274.45458984 C173.29679325 283.0568787 173.36554477 289.83979516 179.67895508 296.13037109 C181.38373699 297.49639398 183.1113186 298.83496824 184.87036133 300.13037109 C193.87078659 309.48809112 200.91984324 320.66527031 206.87036133 332.13037109 C219.29311366 318.15013936 218.82822083 292.52227523 217.87036133 275.13037109 C216.45560851 258.96930212 212.66548693 241.89743176 205.87036133 227.13037109 C202.25719831 227.13037109 199.34303881 230.60291544 196.61849976 232.84289551 Z M132.05786133 340.63037109 C113.90715286 354.90585158 93.46512732 366.72515768 70.87036133 372.13037109 C76.18164265 383.01343256 81.84079838 393.62935188 87.87036133 404.13037109 C88.62584497 405.45182832 89.38106377 406.773437 90.13598633 408.09521484 C90.70833008 409.09681641 91.28067383 410.09841797 91.87036133 411.13037109 C110.93545097 410.16095976 130.45761767 398.04030298 144.87036133 386.13037109 C145.34846303 389.23803214 145.82531837 392.34581439 146.29614258 395.45458984 C146.64536736 397.6901036 147.01288964 399.92299256 147.41333008 402.14990234 C149.20245289 412.41381745 149.50776131 422.73731129 149.87036133 433.13037109 C171.2413081 419.26396199 182.3279592 398.75512098 189.87036133 375.13037109 C190.2080957 374.30150391 190.54583008 373.47263672 190.89379883 372.61865234 C193.38512661 365.58667877 189.7706846 358.57776549 186.85717773 352.15380859 C184.28617566 346.88204581 181.18522409 341.96484046 177.87036133 337.13037109 C177.47913086 336.42549561 177.08790039 335.72062012 176.68481445 334.99438477 C174.93426441 332.82584045 174.93426441 332.82584045 171.77929688 332.62866211 C169.91204956 332.63144165 169.91204956 332.63144165 168.00708008 332.63427734 C167.33747757 332.63282211 166.66787506 332.63136688 165.97798157 332.62986755 C164.56161144 332.63152618 163.14522323 332.64308379 161.72900391 332.66381836 C159.5754609 332.69263559 157.42440262 332.68445708 155.27075195 332.67138672 C145.3544871 332.7162567 139.86028836 334.33116395 132.05786133 340.63037109 Z " fill="#FDFEFE" transform="translate(2031.129638671875,741.86962890625)"/>
<path d="M0 0 C5.94 0 11.88 0 18 0 C18 0.66 18 1.32 18 2 C19.89492188 1.94779297 19.89492188 1.94779297 21.828125 1.89453125 C51.31522308 1.3423489 82.01565957 5.32365589 110.4921875 13.0625 C112.83544478 13.6887603 115.1966185 14.25136844 117.5703125 14.75 C127.87039005 16.9140567 137.77912009 20.10595196 147.75 23.4375 C148.80766068 23.79003342 148.80766068 23.79003342 149.88668823 24.14968872 C162.37101799 28.32492421 174.65355899 32.77941446 186.56640625 38.4140625 C188.96113267 39.52015912 191.34363316 40.57585797 193.77734375 41.5859375 C203.35265111 45.57832158 212.11804693 50.39854126 220.97460938 55.78759766 C223.49033508 57.29351543 226.04545833 58.71970376 228.60888672 60.14233398 C234.42404679 63.37789098 239.84797733 66.8801501 245.1640625 70.87890625 C247.2032613 72.40409213 249.24748738 73.88579163 251.3359375 75.33984375 C258.15080937 80.093018 264.64088594 85.05472178 270.91357422 90.5090332 C273.76847951 93.0244032 273.76847951 93.0244032 277 95 C277 95.66 277 96.32 277 97 C277.66 97 278.32 97 279 97 C281.37083192 101.46274243 281.07533935 105.20905722 280 110 C278.8242259 113.30635969 277.37444265 116.45432912 275.875 119.625 C275.46830078 120.50671875 275.06160156 121.3884375 274.64257812 122.296875 C271.82443547 128.36672072 268.85293984 134.34736102 265.8125 140.30859375 C263.55450196 144.82332978 261.54480363 149.44849609 259.5 154.0625 C256.8773727 159.9306355 254.23110997 165.77230847 251.3125 171.5 C250.81363281 172.4796875 250.31476562 173.459375 249.80078125 174.46875 C247.50001489 177.70279903 245.58195388 179.26638531 242 181 C235.88137749 181.03609807 232.33633784 179.42567066 227.5625 175.625 C226.3450371 174.70749173 225.12486339 173.79357212 223.90234375 172.8828125 C222.95077393 172.1697998 222.95077393 172.1697998 221.97998047 171.44238281 C218.61674937 168.99232494 215.12704065 166.74520516 211.625 164.5 C210.91102051 164.04206055 210.19704102 163.58412109 209.46142578 163.11230469 C207.31013775 161.73753427 205.15534693 160.36839583 203 159 C202.32146973 158.56655273 201.64293945 158.13310547 200.94384766 157.68652344 C187.23025618 148.93344957 173.48853701 140.80810894 158.47265625 134.48828125 C155.8735559 133.3743811 153.4170615 132.21921153 150.9375 130.875 C142.17032279 126.3745157 132.77792123 123.78924296 123 123 C122.72438232 123.62640381 122.44876465 124.25280762 122.16479492 124.89819336 C121.77396729 125.78643799 121.38313965 126.67468262 120.98046875 127.58984375 C120.54041504 128.59055908 120.10036133 129.59127441 119.64697266 130.62231445 C118.66533707 132.85209526 117.68190722 135.08108695 116.69677734 137.30932617 C114.08766489 143.21775958 111.50951453 149.13610234 108.99609375 155.0859375 C108.51438721 156.21394775 108.03268066 157.34195801 107.53637695 158.50415039 C106.61107076 160.6731219 105.69644043 162.84668584 104.79370117 165.02514648 C102.18591596 171.09776573 100.09542652 174.95228674 94 178 C88.37734821 178.50802959 84.86120819 177.30976141 80.1875 174.375 C79.57567871 174.00963135 78.96385742 173.6442627 78.33349609 173.26782227 C75.67635471 171.67500162 73.05277737 170.03333731 70.43359375 168.37890625 C63.56197701 164.08850595 56.3553612 160.92816595 48.90283203 157.80078125 C47.23117999 157.09728899 45.5661866 156.37801789 43.90234375 155.65625 C30.95368283 150.09919057 17.61526286 145.61252236 4 142 C2.77152344 141.67257812 1.54304688 141.34515625 0.27734375 141.0078125 C-28.71395491 133.43880037 -58.6368687 128.87659021 -88.61328125 128.796875 C-89.71370286 128.79263393 -89.71370286 128.79263393 -90.83635521 128.78830719 C-94.73652868 128.77340434 -98.63666618 128.76412481 -102.53686523 128.75976562 C-105.68672567 128.75542742 -108.83630499 128.74170613 -111.98608398 128.71875 C-133.19983371 128.56740792 -153.92695847 129.43676062 -175 132 C-175.86148651 132.10242004 -176.72297302 132.20484009 -177.61056519 132.31036377 C-182.10867067 132.85364137 -186.58567591 133.48712657 -191.0625 134.1875 C-191.71281189 134.28749298 -192.36312378 134.38748596 -193.03314209 134.49050903 C-218.60833985 138.4498858 -244.10339684 143.94010547 -269 151 C-269.9806543 151.2769873 -270.96130859 151.55397461 -271.97167969 151.83935547 C-295.89180835 158.4128334 -295.89180835 158.4128334 -319.17578125 166.87890625 C-324.13583127 168.84783344 -329.19673042 170.5399072 -334.24243164 172.27514648 C-338.40825754 173.71505552 -342.54526595 175.18958929 -346.640625 176.8203125 C-347.71642822 177.24497803 -347.71642822 177.24497803 -348.81396484 177.67822266 C-350.14737959 178.20988269 -351.47626554 178.75310823 -352.79931641 179.31005859 C-356.93914894 180.95242568 -359.71567767 181.23862392 -364 180 C-367.72362776 178.13818612 -370.38234349 175.79247739 -371.7578125 171.80078125 C-372.3283093 166.08661171 -370.469098 162.67106917 -367.125 158.125 C-365.87725761 156.60239835 -364.62851212 155.08023206 -363.34814453 153.58496094 C-361.94748592 151.93826124 -360.5943784 150.26008618 -359.24609375 148.5703125 C-354.3920119 142.55027356 -354.3920119 142.55027356 -352 140 C-351.34 140 -350.68 140 -350 140 C-349.7628125 139.43829102 -349.525625 138.87658203 -349.28125 138.29785156 C-347.70680643 135.47417342 -345.78315455 133.52385158 -343.5 131.234375 C-342.613125 130.34492187 -341.72625 129.45546875 -340.8125 128.5390625 C-339.884375 127.61867188 -338.95625 126.69828125 -338 125.75 C-337.071875 124.81414062 -336.14375 123.87828125 -335.1875 122.9140625 C-334.300625 122.02976562 -333.41375 121.14546875 -332.5 120.234375 C-331.6853125 119.42194336 -330.870625 118.60951172 -330.03125 117.77246094 C-328 116 -328 116 -326 116 C-326 115.34 -326 114.68 -326 114 C-324.47162731 112.60400604 -322.87349901 111.28412351 -321.25 110 C-320.23550781 109.19046875 -319.22101562 108.3809375 -318.17578125 107.546875 C-317.64549316 107.12470703 -317.11520508 106.70253906 -316.56884766 106.26757812 C-314.14882512 104.31227825 -311.80099766 102.27302177 -309.4375 100.25 C-288.29089363 82.64143588 -264.33162164 66.78656926 -239.5703125 54.73828125 C-237.13180164 53.55104128 -234.71420015 52.34805102 -232.3046875 51.10546875 C-203.47613413 36.29186894 -171.48013504 23.47389174 -139.68359375 16.78515625 C-135.97851224 15.99541989 -132.34664453 15.04159953 -128.6875 14.0625 C-108.50353676 8.88995792 -87.69625353 6.12752639 -67 4 C-66.06349609 3.89558594 -65.12699219 3.79117188 -64.16210938 3.68359375 C-42.83495509 1.33537746 -21.42263674 1.80342043 0 2 C0 1.34 0 0.68 0 0 Z " fill="#FCFEFE" transform="translate(960,629)"/>
<path d="M0 0 C3.93170409 -0.14899757 6.81093424 0.02430803 10.3984375 1.65234375 C11.60028687 2.19217896 11.60028687 2.19217896 12.82641602 2.74291992 C14.08796509 3.33423706 14.08796509 3.33423706 15.375 3.9375 C16.25406006 4.34137939 17.13312012 4.74525879 18.03881836 5.16137695 C25.68705928 8.7326773 33.01367682 12.76517091 40.296875 17.02148438 C42.68422456 18.39311526 45.12346493 19.6605934 47.5625 20.9375 C52.22754397 23.47300481 56.68492868 26.2813762 61.125 29.1875 C61.78959229 29.61603271 62.45418457 30.04456543 63.13891602 30.48608398 C67.88123561 33.64370684 67.88123561 33.64370684 69 37 C68.26586914 39.24780273 68.26586914 39.24780273 67.03515625 41.93359375 C66.57270508 42.95710937 66.11025391 43.980625 65.63378906 45.03515625 C65.11526367 46.15792969 64.59673828 47.28070312 64.0625 48.4375 C63.24335183 50.24527528 62.42423708 52.05306598 61.60623169 53.86135864 C60.71241015 55.83445373 59.81457956 57.80569348 58.91650391 59.77685547 C55.83574928 66.55141562 52.81551707 73.3530977 49.79290771 80.15374756 C49.09681694 81.71975829 48.40024185 83.28555383 47.70318604 84.85113525 C43.58103493 94.11016927 39.46770469 103.36962979 35.64550781 112.7578125 C33.83695606 117.16401928 31.85330633 121.47686303 29.82421875 125.78515625 C25.90267964 134.12166182 22.20685337 142.55233715 18.52252197 150.99578857 C16.54563797 155.52524085 14.56216796 160.05180487 12.578125 164.578125 C12.18460846 165.47594696 11.79109192 166.37376892 11.38565063 167.29879761 C6.48793715 178.4618402 1.48460941 189.5766453 -3.51611328 200.69384766 C-5.96221816 206.14385625 -8.38820318 211.60276295 -10.8125 217.0625 C-11.2967041 218.15296631 -11.7809082 219.24343262 -12.27978516 220.36694336 C-13.30137356 222.66808533 -14.32285434 224.96927508 -15.34423828 227.27050781 C-18.13831798 233.56491168 -20.93623684 239.85761024 -23.73348999 246.15060425 C-25.44224425 249.99487811 -27.15079887 253.83924071 -28.859375 257.68359375 C-29.55143135 259.24072308 -30.24348864 260.79785198 -30.93554688 262.35498047 C-31.27739014 263.12412781 -31.6192334 263.89327515 -31.97143555 264.68572998 C-32.98681641 266.97033691 -34.00219727 269.25494385 -35.01757812 271.53955078 C-35.34771912 272.28237305 -35.67786011 273.02519531 -36.01800537 273.79052734 C-36.68323278 275.28727885 -37.3484753 276.78402364 -38.01373291 278.28076172 C-39.66999178 282.00716673 -41.32599051 285.73368692 -42.98144531 289.46044922 C-46.05147859 296.37099691 -49.1238897 303.28045443 -52.20518494 310.18598938 C-53.97134179 314.14428347 -55.7361075 318.10319639 -57.5 322.0625 C-57.8398996 322.82541351 -58.17979919 323.58832703 -58.52999878 324.37435913 C-62.61456108 333.54920796 -66.63134488 342.74397881 -70.47851562 352.02148438 C-72.63747315 357.20783402 -74.95641838 362.30178244 -77.35986328 367.37890625 C-80.69678057 374.43421071 -83.83552182 381.57583677 -86.98828125 388.71484375 C-87.97678851 390.94757251 -88.97152888 393.17740119 -89.96875 395.40625 C-93.57347946 403.46988474 -97.1039612 411.56000699 -100.5625 419.6875 C-103.65739258 426.95359813 -106.88251313 434.13397938 -110.2578125 441.2734375 C-113.28166619 447.69697163 -116.11553992 454.20767901 -118.98388672 460.70166016 C-120.6500651 464.4703779 -122.32540151 468.23501806 -124 472 C-125.94301708 476.37038046 -127.88551076 480.74098731 -129.82421875 485.11328125 C-130.44522709 486.51305873 -131.06632264 487.91279752 -131.6875 489.3125 C-132.00533447 490.02881592 -132.32316895 490.74513184 -132.65063477 491.4831543 C-134.78040941 496.27578369 -136.92551284 501.06133272 -139.078125 505.84375 C-140.1982628 508.33317776 -141.31804072 510.82276705 -142.4375 513.3125 C-142.71848541 513.93736298 -142.99947083 514.56222595 -143.28897095 515.20602417 C-146.89441936 523.2301849 -150.43633481 531.27764385 -153.875 539.375 C-157.40417074 547.67447268 -161.0761642 555.8787204 -165 564 C-165.33418945 564.69561035 -165.66837891 565.3912207 -166.01269531 566.10791016 C-167.06247297 568.28452671 -168.12297242 570.45556365 -169.1875 572.625 C-169.66908569 573.62043823 -169.66908569 573.62043823 -170.16040039 574.63598633 C-172.06541778 578.47210375 -174.08428397 581.84885348 -177 585 C-177.66 585 -178.32 585 -179 585 C-179 585.66 -179 586.32 -179 587 C-186.70223097 592.60162253 -193.52930192 595.3265758 -203 595 C-203 595.66 -203 596.32 -203 597 C-203.99 597 -204.98 597 -206 597 C-206 596.34 -206 595.68 -206 595 C-207.7015625 595.12375 -207.7015625 595.12375 -209.4375 595.25 C-219.70723975 595.19575842 -227.89009417 588.10990583 -234.8125 581.1875 C-239.67235379 574.10599876 -242.19680049 566.16237672 -242.375 557.625 C-242.42398438 556.31789063 -242.47296875 555.01078125 -242.5234375 553.6640625 C-241.93083508 542.74949163 -235.20326552 531.77762096 -230.75 522 C-229.59377724 519.44647254 -228.44082563 516.89147923 -227.2890625 514.3359375 C-227.00590179 513.70803314 -226.72274109 513.08012878 -226.43099976 512.43319702 C-223.92416734 506.86036406 -221.50945044 501.25104254 -219.125 495.625 C-216.68211877 489.86600028 -214.18295149 484.15132335 -211.5 478.5 C-208.68568566 472.55866972 -206.06878609 466.55130145 -203.5 460.5 C-200.41561097 453.23409026 -197.19164817 446.07125725 -193.8125 438.9375 C-191.59045989 434.17598549 -189.55296741 429.33618498 -187.5 424.5 C-184.93121391 418.44869855 -182.31431434 412.44133028 -179.5 406.5 C-176.66623309 400.51687265 -174.02775084 394.46730439 -171.4375 388.375 C-169.06717521 382.79996461 -166.69165914 377.23836047 -164.125 371.75 C-156.97754497 356.45366081 -150.37137956 340.9043311 -143.75 325.375 C-140.27480004 317.22585871 -136.71785209 309.15314066 -132.90625 301.15625 C-129.82734408 294.55859447 -127.05172993 287.82251053 -124.20175171 281.12374878 C-120.84408057 273.23679525 -117.39262933 265.43026547 -113.70703125 257.69140625 C-111.51161842 253.01615994 -109.51813582 248.25370022 -107.5 243.5 C-105.01089581 237.63841077 -102.48688243 231.81401777 -99.75 226.0625 C-96.28500407 218.74129892 -93.07966691 211.31269707 -89.875 203.875 C-85.53224652 193.79921638 -81.12938255 183.75497318 -76.625 173.75 C-71.98209824 163.43352971 -67.37590223 153.10190301 -62.8125 142.75 C-62.504263 142.05086487 -62.196026 141.35172974 -61.87844849 140.63140869 C-58.11327944 132.08886678 -54.35882083 123.54164088 -50.609375 114.9921875 C-50.05135193 113.71982994 -50.05135193 113.71982994 -49.48205566 112.42176819 C-49.10770386 111.56820236 -48.73335205 110.71463654 -48.34765625 109.83520508 C-47.58594441 108.09846702 -46.82422563 106.36173201 -46.0625 104.625 C-45.68416016 103.76232513 -45.30582031 102.89965027 -44.91601562 102.01083374 C-39.58026153 89.84702443 -34.2139508 77.69727529 -28.8125 65.5625 C-28.4878476 64.83313232 -28.16319519 64.10376465 -27.82870483 63.35229492 C-27.50584503 62.62695557 -27.18298523 61.90161621 -26.8503418 61.15429688 C-22.50157757 51.38364107 -18.16489905 41.6077516 -13.84579468 31.82394409 C-13.21295175 30.3904935 -12.57984681 28.95715855 -11.94644165 27.5239563 C-7.90351708 18.37478552 -3.92082403 9.20222585 0 0 Z " fill="#FBFDFD" transform="translate(1094,774)"/>
<path d="M0 0 C0.66 0 1.32 0 2 0 C3.10644531 1.39501953 3.10644531 1.39501953 4.328125 3.3828125 C5.02228516 4.49849609 5.02228516 4.49849609 5.73046875 5.63671875 C6.23191406 6.45785156 6.73335937 7.27898438 7.25 8.125 C8.3379569 9.87796723 9.42652274 11.63055664 10.515625 13.3828125 C11.08603516 14.30481445 11.65644531 15.22681641 12.24414062 16.17675781 C15.1248572 20.80865527 18.06418023 25.40291006 21 30 C24.45894013 35.42667788 27.91329102 40.85604272 31.34375 46.30078125 C32.14232422 47.56825195 32.14232422 47.56825195 32.95703125 48.86132812 C33.94508811 50.43096275 34.93216014 52.00121801 35.91796875 53.57226562 C39.19196514 58.77407364 42.56891618 63.90052922 46 69 C48.86497152 67.71051262 50.81344725 66.40497976 52.92578125 64.0859375 C53.4674292 63.4978833 54.00907715 62.9098291 54.56713867 62.30395508 C55.14310791 61.6673999 55.71907715 61.03084473 56.3125 60.375 C57.56475064 59.01139401 58.81736724 57.64812402 60.0703125 56.28515625 C60.71645508 55.57891113 61.36259766 54.87266602 62.02832031 54.14501953 C65.21914197 50.67367739 68.45545566 47.24540819 71.6875 43.8125 C76.89313991 38.26871936 82.05274226 32.68699579 87.1796875 27.0703125 C91.08099747 22.80896816 95.03983441 18.60098184 98.9934082 14.38818359 C102.95035631 10.16060426 106.80332195 5.86042648 110.546875 1.44140625 C112 0 112 0 114 0 C114.46043351 5.89567119 114.91840319 11.79153047 115.375 17.6875 C115.44313904 18.56614716 115.51127808 19.44479431 115.58148193 20.35006714 C116.58203247 33.27450833 117.52784554 46.20047347 118.35302734 59.13745117 C118.42473145 60.22775635 118.49643555 61.31806152 118.5703125 62.44140625 C118.62977051 63.37670166 118.68922852 64.31199707 118.75048828 65.27563477 C119.01990749 68.21736565 119.48142599 71.09272103 120 74 C120.65484375 73.21238281 121.3096875 72.42476562 121.984375 71.61328125 C135.88123442 54.98603702 150.2979367 39.63066138 168 27 C168.33 27.66 168.66 28.32 169 29 C167.87304079 31.77005964 166.6806327 34.47004308 165.4375 37.1875 C154.99047504 61.11079879 150.65204146 88.15249148 148 114 C141.54978611 113.41067323 135.52568728 112.24908355 129.25 110.6875 C120.26712688 108.55428174 111.26954975 107.01281311 102.125 105.75 C100.96258789 105.58717529 99.80017578 105.42435059 98.60253906 105.2565918 C84.1118262 103.33666411 69.65925111 102.79065251 55.0625 102.8125 C54.30609222 102.81310425 53.54968445 102.8137085 52.77035522 102.81433105 C-1.56209433 102.93112755 -58.6270011 114.87032588 -106.11523438 142.04077148 C-106.83517578 142.44368408 -107.55511719 142.84659668 -108.296875 143.26171875 C-108.91916992 143.62225342 -109.54146484 143.98278809 -110.18261719 144.35424805 C-112.57133258 145.20300573 -113.70231211 145.05550878 -116 144 C-117.01391602 142.24780273 -117.01391602 142.24780273 -117.75390625 139.93359375 C-118.19041504 138.6350647 -118.19041504 138.6350647 -118.63574219 137.31030273 C-118.94157227 136.36227783 -119.24740234 135.41425293 -119.5625 134.4375 C-128.20351892 109.33200391 -139.8448818 84.45709891 -157 64 C-156.01 63.505 -156.01 63.505 -155 63 C-152.50908309 64.06623395 -150.15019634 65.19212565 -147.75 66.4375 C-146.67733887 66.98567383 -146.67733887 66.98567383 -145.58300781 67.54492188 C-131.35314792 74.8832751 -118.00831761 83.26911728 -105.12109375 92.76171875 C-104.43301636 93.26747437 -103.74493896 93.77322998 -103.03601074 94.29431152 C-101.35677154 95.52876744 -99.67830533 96.76427475 -98 98 C-98.13780884 97.14444519 -98.27561768 96.28889038 -98.41760254 95.40740967 C-99.71573835 87.34470448 -101.01088175 79.28152555 -102.30266571 71.21780014 C-102.96688975 67.07217859 -103.63226957 62.92674945 -104.30029297 58.78173828 C-104.94492207 54.78161533 -105.58651224 50.78101576 -106.22599792 46.78006744 C-106.47051312 45.25368124 -106.716123 43.72746998 -106.96284485 42.2014389 C-107.30820727 40.06410734 -107.64967326 37.92618703 -107.99023438 35.78808594 C-108.18564819 34.5711908 -108.38106201 33.35429565 -108.58239746 32.1005249 C-109 29 -109 29 -109 25 C-105.21808441 26.37153851 -102.12917513 28.10645164 -98.8125 30.375 C-97.75417969 31.09300781 -96.69585938 31.81101562 -95.60546875 32.55078125 C-95.02716309 32.94475098 -94.44885742 33.3387207 -93.85302734 33.74462891 C-91.19616985 35.5445711 -88.52016768 37.31523641 -85.84570312 39.08886719 C-77.17935002 44.83975849 -68.57879016 50.68397801 -59.99194336 56.55273438 C-52.36644335 61.76072132 -44.69638229 66.89758359 -37 72 C-35.18712622 73.20777248 -33.37456834 74.41601942 -31.5625 75.625 C-30.375023 76.41670117 -29.18752747 77.20837454 -28 78 C-24.0301467 68.97408668 -20.777347 59.78701198 -17.63632202 50.44854736 C-16.22775432 46.26203058 -14.80536983 42.08021761 -13.3828125 37.8984375 C-13.09885117 37.06307465 -12.81488983 36.22771179 -12.52232361 35.36703491 C-8.48877061 23.52824997 -4.25454238 11.76092709 0 0 Z " fill="#FAFDFD" transform="translate(1979,621)"/>
<path d="M0 0 C3.96 0 7.92 0 12 0 C12 291.39 12 582.78 12 883 C8.04 883 4.08 883 0 883 C0 591.61 0 300.22 0 0 Z " fill="#FFFEFE" transform="translate(1494,541)"/>
<path d="M0 0 C3.23173202 1.90715115 6.1577407 3.81848689 9.05859375 6.21484375 C9.05859375 6.87484375 9.05859375 7.53484375 9.05859375 8.21484375 C10.04859375 8.54484375 11.03859375 8.87484375 12.05859375 9.21484375 C18.35226775 16.9245944 21.24129989 25.05023428 21.12109375 35.02734375 C21.11207031 36.00316406 21.10304688 36.97898437 21.09375 37.984375 C21.08214844 38.72042969 21.07054687 39.45648437 21.05859375 40.21484375 C16.70689154 40.21484375 16.03821847 39.82148148 12.62109375 37.46484375 C-4.70108982 26.03266637 -23.33004176 16.36456484 -41.94140625 7.21484375 C-33.07162347 -5.05846032 -13.04733939 -6.3540769 0 0 Z " fill="#F1F9FA" transform="translate(1195.94140625,643.78515625)"/>
<path d="M0 0 C5.94 0 11.88 0 18 0 C18 0.66 18 1.32 18 2 C18.9446814 1.99214478 18.9446814 1.99214478 19.90844727 1.98413086 C22.79312115 1.96319862 25.67777898 1.9502885 28.5625 1.9375 C30.0484668 1.92493164 30.0484668 1.92493164 31.56445312 1.91210938 C36.82548699 1.89463086 41.81764665 2.07691602 47 3 C47 3.33 47 3.66 47 4 C46.01107758 3.99777939 45.02215515 3.99555878 44.00326538 3.99327087 C34.67510071 3.97298273 25.34694052 3.95800051 16.01875877 3.94818783 C11.22327122 3.94297343 6.42780151 3.93590196 1.63232422 3.92456055 C-2.99717763 3.91368042 -7.62666234 3.90771229 -12.25617599 3.90512276 C-14.02076868 3.90327775 -15.78536046 3.89967493 -17.54994583 3.89426994 C-20.02501693 3.8869915 -22.50001755 3.88601193 -24.97509766 3.88647461 C-25.70158508 3.88287933 -26.42807251 3.87928406 -27.17657471 3.87557983 C-31.22808425 3.88375363 -35.02245479 4.24541227 -39 5 C-40.79081227 5.13730268 -42.58435527 5.24259981 -44.37890625 5.31640625 C-45.37728516 5.35838135 -46.37566406 5.40035645 -47.40429688 5.44360352 C-48.96760742 5.50245728 -48.96760742 5.50245728 -50.5625 5.5625 C-51.62919922 5.6049585 -52.69589844 5.64741699 -53.79492188 5.69116211 C-61.20107105 5.9712029 -68.58836508 6.13028265 -76 6 C-76 5.67 -76 5.34 -76 5 C-50.61556564 2.15201492 -25.5286102 1.63347968 0 2 C0 1.34 0 0.68 0 0 Z " fill="#92D4D7" transform="translate(960,629)"/>
<path d="M0 0 C1.40396777 2.80793555 0.66041889 4.50256213 0.0625 7.5625 C-1.95143071 19.31274402 0.06196287 28.5757574 3 40 C0.2065758 38.6032879 0.03557041 37.00586915 -1.0625 34.125 C-1.40410156 33.24070312 -1.74570312 32.35640625 -2.09765625 31.4453125 C-5.25388231 22.89207651 -5.46251702 12.5278246 -2 4 C-1.36184656 2.65278717 -0.70674629 1.31252882 0 0 Z " fill="#B7E3E5" transform="translate(856,1313)"/>
<path d="M0 0 C0.33 0.66 0.66 1.32 1 2 C0.25477151 4.11004085 -0.60037208 6.18149157 -1.5 8.23046875 C-1.77132248 8.85373047 -2.04264496 9.47699219 -2.32218933 10.11914062 C-3.20694672 12.14547021 -4.10308456 14.16652606 -5 16.1875 C-5.60502556 17.56466154 -6.20959976 18.94202147 -6.8137207 20.31958008 C-17.6594545 44.98918175 -17.6594545 44.98918175 -21 50 C-20.48891158 45.14466001 -18.9503154 41.0796711 -17.08984375 36.6171875 C-16.41094252 34.98685122 -15.75329863 33.34729235 -15.12890625 31.6953125 C-12.77429128 25.47912898 -9.87177367 19.60434474 -6.81738281 13.70849609 C-5.27160063 10.69518976 -3.95563223 7.86658643 -2.8828125 4.640625 C-2 2 -2 2 0 0 Z " fill="#A1DADC" transform="translate(1084,985)"/>
<path d="M0 0 C0.33 0.66 0.66 1.32 1 2 C-0.09282209 4.8146079 -1.25522671 7.52247085 -2.515625 10.26171875 C-2.88725769 11.08573685 -3.25889038 11.90975494 -3.64178467 12.75874329 C-4.83717193 15.40506256 -6.0433263 18.04631071 -7.25 20.6875 C-8.04891101 22.44953721 -8.8470971 24.2119033 -9.64453125 25.97460938 C-10.77455105 28.4724727 -11.90554674 30.96982659 -13.0425415 33.46452332 C-15.08702383 37.95301175 -17.07516517 42.45885188 -19 47 C-19.33 47 -19.66 47 -20 47 C-20.65146551 39.83387935 -16.18690551 33.31327455 -13 27.125 C-10.47657285 22.16954542 -8.29091466 17.38143601 -6.71484375 12.03515625 C-5.28296846 7.95861513 -3.09098612 3.09098612 0 0 Z " fill="#95D5D8" transform="translate(1105,938)"/>
<path d="M0 0 C10.48238391 0.49566768 20.61243897 1.74087782 30.9375 3.5625 C32.31433308 3.79952649 33.69128612 4.03585728 35.06835938 4.27148438 C38.38014262 4.84087869 41.69056923 5.41711627 45 6 C45 6.33 45 6.66 45 7 C38.55929529 7.10655578 32.37358711 6.96205088 26 6 C26 5.34 26 4.68 26 4 C21.71 4 17.42 4 13 4 C13 3.34 13 2.68 13 2 C9.04 2 5.08 2 1 2 C0.67 1.34 0.34 0.68 0 0 Z " fill="#A9DDE0" transform="translate(1013,633)"/>
<path d="M0 0 C0.33 0.66 0.66 1.32 1 2 C0.05957031 4.59448242 0.05957031 4.59448242 -1.421875 7.85546875 C-2.21851563 9.62567383 -2.21851563 9.62567383 -3.03125 11.43164062 C-3.60392154 12.68370589 -4.17684024 13.93565815 -4.75 15.1875 C-5.30802522 16.41958991 -5.86532548 17.65200843 -6.421875 18.88476562 C-7.48266762 21.2320243 -8.54571741 23.57826457 -9.61132812 25.92333984 C-11.11945392 29.26465513 -12.57838273 32.62115614 -14 36 C-15.12018319 32.63945043 -14.90181274 31.98276729 -13.78515625 28.76953125 C-13.51123047 27.96708984 -13.23730469 27.16464844 -12.95507812 26.33789062 C-12.66052734 25.50451172 -12.36597656 24.67113281 -12.0625 23.8125 C-11.77181641 22.96751953 -11.48113281 22.12253906 -11.18164062 21.25195312 C-10.46242463 19.16504771 -9.7349657 17.08140006 -9 15 C-8.01 15 -7.02 15 -6 15 C-5.90203125 14.25234375 -5.8040625 13.5046875 -5.703125 12.734375 C-4.46655232 4.59005146 -4.46655232 4.59005146 -1.875 1.3125 C-1.25625 0.879375 -0.6375 0.44625 0 0 Z " fill="#9FDADC" transform="translate(1040,1084)"/>
<path d="M0 0 C1 2 1 2 0.45849609 3.81591797 C-0.55536038 6.17558289 -1.57885698 8.52943722 -2.625 10.875 C-2.96917969 11.69097656 -3.31335937 12.50695312 -3.66796875 13.34765625 C-6.09796422 18.84428808 -8.47399104 22.23699552 -14 25 C-19.30507531 25.39296854 -20.56808139 25.32393895 -25 22 C-20.38 22 -15.76 22 -11 22 C-10.34 20.35 -9.68 18.7 -9 17 C-8.484375 15.824375 -7.96875 14.64875 -7.4375 13.4375 C-6.37880408 10.90583583 -5.53395878 8.66979391 -5 6 C-4.01 6 -3.02 6 -2 6 C-1.855625 5.195625 -1.71125 4.39125 -1.5625 3.5625 C-1 1 -1 1 0 0 Z " fill="#AADEE0" transform="translate(1068,782)"/>
<path d="M0 0 C0 0.33 0 0.66 0 1 C-4.65893969 1.96066154 -9.31795982 2.92093175 -13.97705078 3.88085938 C-15.55780143 4.20660152 -17.13853109 4.53244549 -18.71923828 4.85839844 C-27.14170491 6.59509934 -35.56469849 8.32646323 -44 10 C-44 9.34 -44 8.68 -44 8 C-42.02 8 -40.04 8 -38 8 C-38 7.34 -38 6.68 -38 6 C-37.40832031 5.95101562 -36.81664062 5.90203125 -36.20703125 5.8515625 C-31.7405078 5.42895506 -28.15288651 4.74858379 -24 3 C-21.66905466 2.6503582 -19.33595238 2.31445513 -17 2 C-16.67 1.67 -16.34 1.34 -16 1 C-10.69282159 0.07750762 -5.37343833 -0.11432848 0 0 Z " fill="#A4DBDE" transform="translate(748,766)"/>
<path d="M0 0 C0.66 0 1.32 0 2 0 C-0.06955837 7.5157646 -2.96012064 16.0331126 -9.44140625 20.79296875 C-13.21123348 22.57140633 -16.08207633 22.24326597 -20 21 C-22.5 18.9375 -22.5 18.9375 -24 17 C-23.01 17.33 -22.02 17.66 -21 18 C-18.93854893 18.068991 -16.87498599 18.08467727 -14.8125 18.0625 C-13.72582031 18.05347656 -12.63914062 18.04445313 -11.51953125 18.03515625 C-10.68808594 18.02355469 -9.85664062 18.01195312 -9 18 C-8.34 16.68 -7.68 15.36 -7 14 C-6.34 14 -5.68 14 -5 14 C-5 12.68 -5 11.36 -5 10 C-4.34 10 -3.68 10 -3 10 C-2.67 8.02 -2.34 6.04 -2 4 C-1.34 4 -0.68 4 0 4 C0 2.68 0 1.36 0 0 Z " fill="#A3DBDD" transform="translate(1214,788)"/>
<path d="M0 0 C0 3 0 3 -2.01953125 5.36010742 C-3.40205078 6.71906128 -3.40205078 6.71906128 -4.8125 8.10546875 C-5.30081299 8.5895369 -5.78912598 9.07360504 -6.29223633 9.57234192 C-7.85459826 11.1179014 -9.42706327 12.65271107 -11 14.1875 C-12.06057762 15.23303282 -13.12048229 16.27924873 -14.1796875 17.32617188 C-16.77869434 19.89208902 -19.3868639 22.44846467 -22 25 C-22.66 24.67 -23.32 24.34 -24 24 C-21.50649333 21.30641391 -19.00401126 18.62132058 -16.5 15.9375 C-15.80390625 15.18533203 -15.1078125 14.43316406 -14.390625 13.65820312 C-9.83680926 8.78815018 -5.10887591 4.28461414 0 0 Z " fill="#C8E9EB" transform="translate(2131,661)"/>
<path d="M0 0 C0.33 0.66 0.66 1.32 1 2 C0.19582507 4.15589315 -0.71754141 6.27130873 -1.67578125 8.36328125 C-1.96100143 8.99227829 -2.24622162 9.62127533 -2.54008484 10.26933289 C-3.45687085 12.2871682 -4.38435101 14.29986955 -5.3125 16.3125 C-6.22760338 18.31541776 -7.14051084 20.31932214 -8.05278015 22.3235321 C-8.88614279 24.15134241 -9.72480091 25.97673556 -10.5637207 27.80200195 C-11.78114092 30.51269163 -12.92322337 33.23109932 -14 36 C-15.39852912 31.80441263 -13.77263136 29.95433149 -12 26 C-11.30859478 23.22111387 -11.30859478 23.22111387 -11 21 C-10.34 21 -9.68 21 -9 21 C-8.79503906 20.22914063 -8.59007812 19.45828125 -8.37890625 18.6640625 C-8.10949219 17.66117188 -7.84007812 16.65828125 -7.5625 15.625 C-7.29566406 14.62726562 -7.02882813 13.62953125 -6.75390625 12.6015625 C-6 10 -6 10 -5 8 C-4.34 8 -3.68 8 -3 8 C-3 6.35 -3 4.7 -3 3 C-2.34 3 -1.68 3 -1 3 C-0.67 2.01 -0.34 1.02 0 0 Z " fill="#9CD8DB" transform="translate(1143,852)"/>
<path d="M0 0 C1.97993541 0.30759178 3.95893599 0.6212068 5.9375 0.9375 C7.03964844 1.11152344 8.14179687 1.28554687 9.27734375 1.46484375 C12 2 12 2 13 3 C15.14394519 3.0991757 17.29126732 3.1297015 19.4375 3.125 C20.61183594 3.12757812 21.78617188 3.13015625 22.99609375 3.1328125 C25.9240809 3.20765546 25.9240809 3.20765546 28 2 C29.99960012 1.960008 32.00047242 1.95653201 34 2 C28.75250397 4.62374802 25.91152367 5.09534716 20 5 C20 5.66 20 6.32 20 7 C19.01 7 18.02 7 17 7 C17 6.34 17 5.68 17 5 C15.2984375 5.12375 15.2984375 5.12375 13.5625 5.25 C8.43513383 5.28668956 4.47921476 3.3225558 0 1 C0 0.67 0 0.34 0 0 Z " fill="#A4DBDE" transform="translate(871,1364)"/>
<path d="M0 0 C9.21597055 2.17390522 18.18118975 4.48742304 27 8 C23.61725734 9.12758089 22.23221777 8.81750262 18.8125 8.0625 C17.91144531 7.86785156 17.01039062 7.67320312 16.08203125 7.47265625 C15.05142578 7.23869141 15.05142578 7.23869141 14 7 C14 6.34 14 5.68 14 5 C11.03 4.67 8.06 4.34 5 4 C5 3.34 5 2.68 5 2 C3.35 2 1.7 2 0 2 C0 1.34 0 0.68 0 0 Z " fill="#ADDFE1" transform="translate(1091,648)"/>
<path d="M0 0 C11.24697281 1.37508609 22.05757761 4.13120012 33 7 C33 7.33 33 7.66 33 8 C31.783125 8.04125 30.56625 8.0825 29.3125 8.125 C28.28576172 8.15980469 28.28576172 8.15980469 27.23828125 8.1953125 C25 8 25 8 22.83984375 7.1171875 C17.95285671 5.1946589 12.74554264 4.47044103 7.59765625 3.5 C6.76621094 3.335 5.93476562 3.17 5.078125 3 C4.31918945 2.855625 3.56025391 2.71125 2.77832031 2.5625 C2.19147461 2.376875 1.60462891 2.19125 1 2 C0.67 1.34 0.34 0.68 0 0 Z " fill="#A2DBDD" transform="translate(1058,640)"/>
<path d="M0 0 C1 2 1 2 0.4765625 4.05859375 C0.19554687 4.84363281 -0.08546875 5.62867188 -0.375 6.4375 C-0.65085937 7.21996094 -0.92671875 8.00242187 -1.2109375 8.80859375 C-1.47132813 9.53175781 -1.73171875 10.25492188 -2 11 C-2.33 11.99 -2.66 12.98 -3 14 C-3.66 14 -4.32 14 -5 14 C-5.33 16.31 -5.66 18.62 -6 21 C-6.66 21 -7.32 21 -8 21 C-8 21.99 -8 22.98 -8 24 C-8.66 24 -9.32 24 -10 24 C-7.39619501 15.64041555 -3.94966199 7.80831794 0 0 Z " fill="#A7DDDF" transform="translate(968,1060)"/>
<path d="M0 0 C1 2 1 2 0.1875 4.75 C-0.204375 5.8225 -0.59625 6.895 -1 8 C-1.37125 9.11375 -1.7425 10.2275 -2.125 11.375 C-2.41375 12.24125 -2.7025 13.1075 -3 14 C-3.66 14 -4.32 14 -5 14 C-5.185625 15.6396875 -5.185625 15.6396875 -5.375 17.3125 C-6 21 -6 21 -8 24 C-8.66 24 -9.32 24 -10 24 C-7.49415892 15.59806226 -3.78974143 7.88058561 0 0 Z " fill="#A6DCDE" transform="translate(949,1103)"/>
<path d="M0 0 C1.30543408 3.91630223 0.36865443 5.04915817 -1.30859375 8.76171875 C-1.80810547 9.87998047 -2.30761719 10.99824219 -2.82226562 12.15039062 C-3.35529297 13.31763672 -3.88832031 14.48488281 -4.4375 15.6875 C-4.96666016 16.86634766 -5.49582031 18.04519531 -6.04101562 19.25976562 C-7.35208257 22.17718487 -8.67203761 25.09024189 -10 28 C-11.22301543 23.9902794 -10.51395517 22.32475601 -8.625 18.5625 C-6.85852638 15.0147499 -5.61272149 11.92569232 -5 8 C-4.34 8 -3.68 8 -3 8 C-3 6.68 -3 5.36 -3 4 C-2.34 4 -1.68 4 -1 4 C-0.67 2.68 -0.34 1.36 0 0 Z " fill="#98D6D9" transform="translate(1124,894)"/>
<path d="M0 0 C9.77380802 -0.14444051 17.88644568 0.32260089 27 4 C22.97336106 5.56071277 19.25730701 4.48180148 15.1875 3.625 C13.80629031 3.34486733 12.42478068 3.06620926 11.04296875 2.7890625 C10.37313965 2.6540332 9.70331055 2.51900391 9.01318359 2.37988281 C6.02082388 1.81523186 3.01815752 1.402421 0 1 C0 0.67 0 0.34 0 0 Z " fill="#AADEE0" transform="translate(921,761)"/>
<path d="M0 0 C0.66 0 1.32 0 2 0 C-0.50584108 8.40193774 -4.21025857 16.11941439 -8 24 C-9.61363928 20.77272143 -8.08456242 18.31076949 -7 15 C-6.37530495 13.64649406 -5.7283669 12.30065517 -5 11 C-4.34 11 -3.68 11 -3 11 C-2.87625 10.29875 -2.7525 9.5975 -2.625 8.875 C-1.96161655 5.82343613 -1.02788045 2.94659062 0 0 Z " fill="#9FD9DC" transform="translate(983,1210)"/>
<path d="M0 0 C1 2 1 2 0.41088867 3.81591797 C0.0832251 4.53408691 -0.24443848 5.25225586 -0.58203125 5.9921875 C-0.93716797 6.77980469 -1.29230469 7.56742188 -1.65820312 8.37890625 C-2.22958008 9.61447266 -2.22958008 9.61447266 -2.8125 10.875 C-3.18181641 11.69097656 -3.55113281 12.50695313 -3.93164062 13.34765625 C-5.55993907 16.93166684 -7.22436255 20.48632567 -9 24 C-10.15941038 20.52176885 -9.70820884 18.54104422 -9 15 C-8.01 15 -7.02 15 -6 15 C-5.88785156 14.28457031 -5.77570312 13.56914063 -5.66015625 12.83203125 C-4.95543995 9.80884002 -3.86712202 7.43677312 -2.4375 4.6875 C-1.98246094 3.80449219 -1.52742187 2.92148438 -1.05859375 2.01171875 C-0.70925781 1.34785156 -0.35992188 0.68398437 0 0 Z " fill="#9FD9DC" transform="translate(1005,1163)"/>
<path d="M0 0 C0.33 0 0.66 0 1 0 C1.85298376 3.67387495 2.10789471 7.0447393 2.0625 10.8125 C2.05347656 11.78832031 2.04445313 12.76414062 2.03515625 13.76953125 C2.02355469 14.50558594 2.01195312 15.24164062 2 16 C-2.68091299 16 -3.62101604 15.00354129 -7 12 C-5.68 12 -4.36 12 -3 12 C-3 12.66 -3 13.32 -3 14 C-2.01 14 -1.02 14 0 14 C0 9.38 0 4.76 0 0 Z " fill="#ACDEE0" transform="translate(1215,668)"/>
<path d="M0 0 C0.33 0.66 0.66 1.32 1 2 C-0.07408957 4.60474038 -1.20045633 7.09966038 -2.4375 9.625 C-2.77587891 10.33140625 -3.11425781 11.0378125 -3.46289062 11.765625 C-4.30154879 13.51381384 -5.14987847 15.25735686 -6 17 C-7.53445094 13.93109813 -6.54984289 11.29905734 -6 8 C-5.34 8 -4.68 8 -4 8 C-3.896875 7.05125 -3.79375 6.1025 -3.6875 5.125 C-3 2 -3 2 0 0 Z " fill="#B2E1E3" transform="translate(1013,1145)"/>
<path d="M0 0 C0.33 0.66 0.66 1.32 1 2 C-0.07335699 4.76674582 -1.20260061 7.43194258 -2.4375 10.125 C-2.77587891 10.87910156 -3.11425781 11.63320312 -3.46289062 12.41015625 C-4.30160601 14.27659331 -5.14991393 16.1387143 -6 18 C-6.33 18 -6.66 18 -7 18 C-8.16073704 10.53811904 -4.18902831 5.90952207 0 0 Z " fill="#A8DDDF" transform="translate(1024,1120)"/>
<path d="M0 0 C0.33 0.66 0.66 1.32 1 2 C0.19555664 4.33837891 0.19555664 4.33837891 -1.08984375 7.2265625 C-1.54423828 8.2578125 -1.99863281 9.2890625 -2.46679688 10.3515625 C-2.95212891 11.43179688 -3.43746094 12.51203125 -3.9375 13.625 C-4.41896484 14.71296875 -4.90042969 15.8009375 -5.39648438 16.921875 C-6.59071424 19.61776023 -7.79214672 22.31019758 -9 25 C-10.98737616 18.39800328 -6.58181829 12.0399904 -3.55078125 6.21484375 C-2.39499241 4.12515104 -1.21864486 2.05354623 0 0 Z " fill="#95D6D8" transform="translate(1073,1010)"/>
<path d="M0 0 C0.33 0.66 0.66 1.32 1 2 C0.10333658 4.24310013 -0.89146683 6.44754321 -1.9375 8.625 C-2.50339844 9.81351563 -3.06929687 11.00203125 -3.65234375 12.2265625 C-4.09707031 13.14179687 -4.54179688 14.05703125 -5 15 C-5.66 15 -6.32 15 -7 15 C-7.33 15.66 -7.66 16.32 -8 17 C-7.03333708 10.42669215 -3.69982524 5.35836758 0 0 Z " fill="#A6DCDF" transform="translate(1105,938)"/>
<path d="M0 0 C0.33 0.66 0.66 1.32 1 2 C-0.07408957 4.60474038 -1.20045633 7.09966038 -2.4375 9.625 C-2.77587891 10.33140625 -3.11425781 11.0378125 -3.46289062 11.765625 C-4.30154879 13.51381384 -5.14987847 15.25735686 -6 17 C-7 15 -7 15 -6.328125 12.28515625 C-5.97234375 11.22167969 -5.6165625 10.15820312 -5.25 9.0625 C-4.90453125 8.00160156 -4.5590625 6.94070313 -4.203125 5.84765625 C-3.07815725 3.18498908 -2.19789193 1.81262926 0 0 Z " fill="#A8DDDF" transform="translate(973,1235)"/>
<path d="M0 0 C0.66 0 1.32 0 2 0 C0.06375702 6.20477864 -2.25609141 12.10825719 -5 18 C-6.9979633 12.0061101 -2.52021996 5.50533487 0 0 Z " fill="#A1DADC" transform="translate(991,1192)"/>
<path d="M0 0 C0.66 0 1.32 0 2 0 C2 2.64 2 5.28 2 8 C1.34 6.68 0.68 5.36 0 4 C-2.64 6.64 -5.28 9.28 -8 12 C-8.66 11.67 -9.32 11.34 -10 11 C-8.38150935 9.16053461 -6.75581169 7.32848583 -5.125 5.5 C-4.66480469 4.97535156 -4.20460938 4.45070313 -3.73046875 3.91015625 C-2.52827924 2.56858245 -1.26754054 1.28000815 0 0 Z " fill="#CAEAEC" transform="translate(2091,621)"/>
<path d="M0 0 C6.625 -0.25 6.625 -0.25 10 2 C7.36 2 4.72 2 2 2 C0.68 4.97 -0.64 7.94 -2 11 C-2.95904856 7.16380575 -2.91892116 5.67568464 -2 2 C-1.34 2 -0.68 2 0 2 C0 1.34 0 0.68 0 0 Z " fill="#9ED9DC" transform="translate(1081,750)"/>
<path d="M0 0 C0.99 0.33 1.98 0.66 3 1 C4.89212737 1.22179785 6.78884472 1.40614015 8.6875 1.5625 C9.68136719 1.64628906 10.67523437 1.73007812 11.69921875 1.81640625 C12.83810547 1.90728516 12.83810547 1.90728516 14 2 C14 2.66 14 3.32 14 4 C9.90117075 4.90174243 7.58755072 5.22849195 3.625 3.6875 C1 2 1 2 0 0 Z " fill="#B0E0E2" transform="translate(1190,805)"/>
<path d="M0 0 C0.66 0 1.32 0 2 0 C0.25192871 5.46737191 -1.65794081 10.75824848 -4 16 C-4.33 16 -4.66 16 -5 16 C-5 14.02 -5 12.04 -5 10 C-4.34 10 -3.68 10 -3 10 C-2.87625 9.0925 -2.7525 8.185 -2.625 7.25 C-2.07890323 4.41029677 -1.42736197 2.47409409 0 0 Z " fill="#ADDFE1" transform="translate(946,1293)"/>
<path d="M0 0 C0.66 0 1.32 0 2 0 C0.25192871 5.46737191 -1.65794081 10.75824848 -4 16 C-4.33 16 -4.66 16 -5 16 C-5.3118744 11.73511753 -4.34425989 9.01433927 -2.5 5.1875 C-2.0359375 4.21167969 -1.571875 3.23585938 -1.09375 2.23046875 C-0.7328125 1.49441406 -0.371875 0.75835938 0 0 Z " fill="#ABDEE0" transform="translate(938,1311)"/>
<path d="M0 0 C-2.97119894 1.58924595 -5.89570712 2.67067166 -9.125 3.625 C-9.99382813 3.88539063 -10.86265625 4.14578125 -11.7578125 4.4140625 C-14 5 -14 5 -16 5 C-16 4.34 -16 3.68 -16 3 C-14.35 3 -12.7 3 -11 3 C-11 2.34 -11 1.68 -11 1 C-7.26562152 0.12132271 -3.83225427 -0.08912219 0 0 Z " fill="#ACDEE1" transform="translate(671,785)"/>
<path d="M0 0 C0.66 0.33 1.32 0.66 2 1 C1.773125 1.598125 1.54625 2.19625 1.3125 2.8125 C1.209375 3.534375 1.10625 4.25625 1 5 C2.35444301 6.77190909 2.35444301 6.77190909 4 8 C1.69 7.34 -0.62 6.68 -3 6 C-3 3 -3 3 -1.5 1.3125 C-0.7575 0.6628125 -0.7575 0.6628125 0 0 Z " fill="#ACDEE0" transform="translate(1158,646)"/>
<path d="M0 0 C0 0.66 0 1.32 0 2 C-4.62197306 4.21854707 -7.76824163 5.38281159 -13 5 C-10.54278328 3.36185552 -8.65432189 2.38047801 -5.9375 1.375 C-5.24527344 1.11460937 -4.55304687 0.85421875 -3.83984375 0.5859375 C-2 0 -2 0 0 0 Z " fill="#B4E2E3" transform="translate(779,659)"/>
<path d="M0 0 C0.66 0.33 1.32 0.66 2 1 C-0.97 3.97 -3.94 6.94 -7 10 C-7.66 9.67 -8.32 9.34 -9 9 C-6.21000549 5.51250686 -3.74764169 2.49842779 0 0 Z " fill="#CBEBEC" transform="translate(1868,807)"/>
<path d="M0 0 C0.33 0.66 0.66 1.32 1 2 C0.00390625 4.6015625 0.00390625 4.6015625 -1.4375 7.625 C-1.91058594 8.62789062 -2.38367187 9.63078125 -2.87109375 10.6640625 C-3.24363281 11.43492188 -3.61617187 12.20578125 -4 13 C-4.33 13 -4.66 13 -5 13 C-5.64165788 7.73840541 -4.20577001 5.31407151 -1.09375 1.3203125 C-0.55234375 0.66675781 -0.55234375 0.66675781 0 0 Z " fill="#9BD8DA" transform="translate(1054,1053)"/>
<path d="M0 0 C0 0.66 0 1.32 0 2 C-2.75 4.1875 -2.75 4.1875 -6 6 C-8.203125 5.61328125 -8.203125 5.61328125 -10 5 C-8.71186658 4.16121545 -7.41936744 3.32913217 -6.125 2.5 C-5.40570312 2.0359375 -4.68640625 1.571875 -3.9453125 1.09375 C-2 0 -2 0 0 0 Z " fill="#B4E2E3" transform="translate(699,697)"/>
<path d="M0 0 C0.33 0.66 0.66 1.32 1 2 C0.00390625 4.6015625 0.00390625 4.6015625 -1.4375 7.625 C-1.91058594 8.62789062 -2.38367187 9.63078125 -2.87109375 10.6640625 C-3.24363281 11.43492188 -3.61617187 12.20578125 -4 13 C-5.11672285 9.64983146 -4.92467164 9.07440438 -3.6875 5.9375 C-3.42324219 5.24527344 -3.15898438 4.55304688 -2.88671875 3.83984375 C-2 2 -2 2 0 0 Z " fill="#9BD7DA" transform="translate(1030,1107)"/>
<path d="M0 0 C0.33 0.66 0.66 1.32 1 2 C0.22265625 4.1640625 0.22265625 4.1640625 -0.9375 6.625 C-1.31777344 7.44226562 -1.69804688 8.25953125 -2.08984375 9.1015625 C-2.39019531 9.72804688 -2.69054688 10.35453125 -3 11 C-3.33 11 -3.66 11 -4 11 C-4.36630156 7.06225823 -4.30233203 5.43460229 -2 2.125 C-1.34 1.42375 -0.68 0.7225 0 0 Z " fill="#A0DADC" transform="translate(1048,1066)"/>
<path d="M0 0 C0.97791242 2.64036353 1.03638105 3.87266632 0.25 6.625 C-1 9 -1 9 -4 11 C-3.52269162 9.5410574 -3.04308958 8.08286504 -2.5625 6.625 C-2.29566406 5.81289062 -2.02882813 5.00078125 -1.75390625 4.1640625 C-1 2 -1 2 0 0 Z " fill="#A9DDDF" transform="translate(874,1272)"/>
<path d="M0 0 C8.35010941 0.35010941 8.35010941 0.35010941 11.0625 3.0625 C11.371875 3.701875 11.68125 4.34125 12 5 C10.56068883 4.54738642 9.12361001 4.08767021 7.6875 3.625 C6.88699219 3.36976563 6.08648438 3.11453125 5.26171875 2.8515625 C3 2 3 2 0 0 Z " fill="#A7DDDF" transform="translate(1000,782)"/>
<path d="M0 0 C0.66 0.33 1.32 0.66 2 1 C1.34 2.32 0.68 3.64 0 5 C-1.98 5 -3.96 5 -6 5 C-6 4.34 -6 3.68 -6 3 C-4.03533587 1.93224776 -2.03144641 0.93446535 0 0 Z " fill="#BCE5E6" transform="translate(1888,774)"/>
<path d="M0 0 C1.21386936 3.64160808 0.6674695 4.33165469 -0.9375 7.6875 C-1.31777344 8.49574219 -1.69804688 9.30398438 -2.08984375 10.13671875 C-2.39019531 10.75160156 -2.69054688 11.36648438 -3 12 C-3.33 12 -3.66 12 -4 12 C-4.50423019 6.70558305 -3.18923033 4.18586481 0 0 Z " fill="#95D6D8" transform="translate(1077,761)"/>
<path d="M0 0 C1.258125 0.12375 2.51625 0.2475 3.8125 0.375 C4.87404297 0.47941406 4.87404297 0.47941406 5.95703125 0.5859375 C8 1 8 1 11 3 C8.03 2.67 5.06 2.34 2 2 C1.67 2.99 1.34 3.98 1 5 C0.67 3.35 0.34 1.7 0 0 Z " fill="#BEE6E7" transform="translate(2106,750)"/>
<path d="M0 0 C1.32 0 2.64 0 4 0 C4 0.66 4 1.32 4 2 C5.65 2.33 7.3 2.66 9 3 C9 3.99 9 4.98 9 6 C5.06326356 4.68775452 2.77280706 3.08089673 0 0 Z " fill="#B3E1E3" transform="translate(1199,674)"/>
<path d="M0 0 C0.66 0 1.32 0 2 0 C1.67 2.64 1.34 5.28 1 8 C0.01 8.33 -0.98 8.66 -2 9 C-1.34 6.03 -0.68 3.06 0 0 Z " fill="#BDE5E7" transform="translate(1031,1099)"/>
<path d="M0 0 C3.63 0.66 7.26 1.32 11 2 C10.34 2.66 9.68 3.32 9 4 C4.48986176 3.71211884 3.29485231 3.29485231 0 0 Z " fill="#A1DADC" transform="translate(593,806)"/>
<path d="M0 0 C3.67230705 3.07999946 4.56802365 5.2482602 5 10 C1.94597912 8.47298956 1.34130519 6.04842088 0 3 C0 2.01 0 1.02 0 0 Z " fill="#A3DBDD" transform="translate(854,1343)"/>
<path d="M0 0 C0.33 0.66 0.66 1.32 1 2 C0.22265625 3.9453125 0.22265625 3.9453125 -0.9375 6.125 C-1.31777344 6.84945312 -1.69804688 7.57390625 -2.08984375 8.3203125 C-2.39019531 8.87460937 -2.69054688 9.42890625 -3 10 C-3.62109375 8.203125 -3.62109375 8.203125 -4 6 C-2.0625 2.75 -2.0625 2.75 0 0 Z " fill="#99D7D9" transform="translate(1063,793)"/>
</svg>
